<?xml version="1.0" encoding="utf-8"?>
<!-- Generator: Adobe Illustrator 16.0.0, SVG Export Plug-In . SVG Version: 6.00 Build 0)  -->
<!DOCTYPE svg PUBLIC "-//W3C//DTD SVG 1.1//EN" "http://www.w3.org/Graphics/SVG/1.1/DTD/svg11.dtd">
<svg version="1.1" id="Layer_1" xmlns="http://www.w3.org/2000/svg" xmlns:xlink="http://www.w3.org/1999/xlink" x="0px" y="0px"
	 width="300px" height="150px" viewBox="0 0 300 150" enable-background="new 0 0 300 150" xml:space="preserve">
<g>
	<path fill="#FFFFFF" d="M231.348,83.853c-0.669-0.746-3.207-3.179-7.764-3.179c-4.513,0-7.023,2.411-8.122,3.854
		c-1.436,1.912-2.163,4.299-2.163,7.095c0,0.866,0.07,1.665,0.195,2.401c0.878,5.15,4.466,7.213,5.693,7.776
		c1.296,0.548,2.757,0.825,4.342,0.825c0.607,0,2.221,0,3.915-0.616c1.246-0.467,2.317-1.144,3.272-2.067
		c2.146-2.063,3.235-4.862,3.235-8.312C233.985,87.344,232.328,84.91,231.348,83.853z M219.844,96.9
		c-0.031-0.031-0.062-0.062-0.09-0.093c-0.164-0.176-0.32-0.361-0.464-0.566c-0.798-1.132-1.255-2.856-1.255-4.73
		c0-0.522,0.037-1.004,0.104-1.446c0.467-3.099,2.378-4.303,3.029-4.628c0.498-0.257,1.093-0.424,1.745-0.49
		c0.218-0.022,0.441-0.034,0.67-0.034c1.194,0,2.236,0.288,3.103,0.86c0.532,0.347,1.048,0.844,1.367,1.312
		c0.367,0.561,1.216,2.117,1.162,4.438c-0.022,1.38-0.438,3.451-1.253,4.68l-0.073,0.096c-0.182,0.237-0.456,0.596-0.939,0.994
		c-0.849,0.708-1.986,1.077-3.366,1.095c-1.258,0-2.308-0.331-3.208-1.013C220.186,97.229,220.011,97.069,219.844,96.9z"/>
	<path fill="#FFFFFF" d="M125.904,99.298c-0.229-0.641-0.362-1.219-0.48-2.091c-0.031-0.188-0.06-0.39-0.09-0.6
		c-0.208-1.434-0.485-3.345-1.746-4.481c0.99-0.761,2.153-2.205,2.153-4.787c0-1.697-0.501-3.136-1.482-4.269
		c-1.734-2.037-4.405-2.208-6.638-2.208L109,80.867V102h5v-7.72l2.699,0.005c2.241,0.013,2.938,0.053,3.422,0.777
		c0.032,0.051,0.044,0.1,0.07,0.148c0.186,0.342,0.233,0.686,0.37,1.621l0.137,0.925c0.259,1.631,0.375,2.375,0.833,3.406
		c0.063,0.147,0.138,0.106,0.219,0.263l0.382,0.574h6.365l-1.858-1.543C126.387,100.223,126.236,100.269,125.904,99.298z
		 M116.783,90H114v-5h1.581c0.388,0,0.75,0.072,1.089,0.072c1.152,0,2.314,0.072,3.001,0.301c0.004,0.001,0.457,0.175,0.821,0.518
		c0.572,0.537,0.57,1.22,0.57,1.66c0,0.89-0.251,1.353-0.451,1.625c-0.331,0.421-0.803,0.791-2.622,0.845
		C117.595,90.047,117.176,90,116.783,90z"/>
	<path fill="#FFFFFF" d="M94.676,80.674c-4.512,0-7.023,2.411-8.124,3.854c-1.434,1.913-2.162,4.3-2.162,7.094
		c0,6.934,4.486,9.534,5.889,10.178c1.295,0.548,2.756,0.825,4.341,0.825c0.607,0,2.221,0,3.916-0.616
		c1.246-0.467,2.317-1.144,3.271-2.067c2.147-2.063,3.236-4.862,3.236-8.312c0.032-4.287-1.625-6.72-2.605-7.777
		C101.771,83.107,99.233,80.674,94.676,80.674z M98.043,97.292c-0.85,0.708-1.987,1.077-3.367,1.095
		c-1.258,0-2.308-0.331-3.208-1.013c-0.618-0.469-0.971-0.969-1.086-1.132c-0.797-1.134-1.254-2.857-1.254-4.731
		c0-4.183,2.39-5.702,3.133-6.074c0.655-0.338,1.513-0.524,2.416-0.524c1.194,0,2.236,0.288,3.102,0.86
		c0.533,0.348,1.048,0.844,1.368,1.312c0.321,0.49,1.011,1.742,1.143,3.604c0.019,0.266,0.026,0.544,0.02,0.834
		c-0.022,1.38-0.438,3.452-1.252,4.679L98.981,96.3C98.799,96.536,98.524,96.895,98.043,97.292z"/>
	<path fill="#FFFFFF" d="M75.185,80.868c-0.227-0.01-0.641-0.014-0.868-0.014L66,80.867V102h5v-7h1.727
		c0.178,0,0.359-0.233,0.541-0.233l1.181-0.1c2.382,0,5.04-0.395,6.704-2.925c0.726-1.15,1.094-2.52,1.094-4.016
		c0-0.646,0-2.627-1.406-4.369C78.977,81.02,76.173,80.904,75.185,80.868z M77.566,87.753c0,0.766-0.191,1.207-0.321,1.43
		c-0.204,0.375-0.44,0.417-0.628,0.521C75.922,90.118,74.669,90,73.996,90H71v-5h2.109c1.914,0,2.862,0.164,3.513,0.551
		C77.444,86.033,77.566,87.178,77.566,87.753z"/>
	<rect x="204" y="81" fill="#FFFFFF" width="5" height="21"/>
	<path fill="#FFFFFF" d="M173.043,80.674c-4.516,0-7.024,2.411-8.123,3.854c-1.434,1.914-2.16,4.301-2.16,7.094
		c0,6.935,4.485,9.534,5.888,10.178c1.296,0.548,2.756,0.825,4.341,0.825c0.607,0,2.221,0,3.915-0.616
		c1.246-0.467,2.317-1.144,3.272-2.067c2.146-2.063,3.235-4.862,3.235-8.312c0.033-4.286-1.624-6.72-2.604-7.777
		C180.139,83.107,177.602,80.674,173.043,80.674z M177.35,96.296c-0.137,0.179-0.325,0.426-0.614,0.706
		c-0.097,0.094-0.204,0.19-0.324,0.29c-0.852,0.708-1.988,1.077-3.368,1.095c-1.258,0-2.308-0.331-3.208-1.013
		c-0.19-0.145-0.365-0.305-0.532-0.474c-0.031-0.031-0.062-0.062-0.09-0.093c-0.164-0.176-0.32-0.361-0.464-0.566
		c-0.798-1.132-1.255-2.856-1.255-4.73c0-4.183,2.391-5.702,3.135-6.074c0.654-0.338,1.512-0.524,2.414-0.524
		c1.194,0,2.236,0.288,3.103,0.86c0.538,0.351,1.041,0.835,1.367,1.312c0.367,0.561,1.216,2.117,1.163,4.438
		c-0.023,1.38-0.438,3.452-1.254,4.68L177.35,96.296z"/>
	<polygon fill="#FFFFFF" points="192,81 188,81 188,102 203,102 203,98 192,98 	"/>
	<polygon fill="#FFFFFF" points="146,102 151,102 151,94 160,94 160,89 151,89 151,85 161,85 161,81 146,81 	"/>
	<polygon fill="#FFFFFF" points="128,85 134,85 134,102 138,102 138,85 144,85 144,81 128,81 	"/>
	<polygon fill="#FFFFFF" points="128.028,68 130.361,59.147 132.788,68 135.912,68 140.789,53 137.017,53 134.378,62.501 
		131.956,53 128.86,53 126.385,62.325 123.766,53 119.999,53 124.788,68 	"/>
	<path fill="#FFFFFF" d="M173.198,68.159c1.123,0.353,2.223,0.353,2.637,0.353c0.929,0,2.138-0.057,3.26-0.507
		c0.992-0.413,4.231-2.168,4.231-7.397c0-2.854-0.925-5.102-2.678-6.5c-1.849-1.461-3.791-1.461-4.621-1.461
		c-0.725,0-2.65,0-4.43,1.305c-0.649,0.452-1.034,0.898-1.298,1.238c-0.729,0.944-1.597,2.655-1.597,5.444
		C168.703,65.859,171.513,67.589,173.198,68.159z M173.814,56.42c0.385-0.289,1.026-0.674,2.158-0.674
		c2.056,0,3.274,1.141,3.625,3.404c0.106,0.579,0.131,1.36,0.131,1.458c0,2.146-0.513,3.509-1.607,4.285
		c-0.879,0.603-1.793,0.603-2.094,0.603c-0.721,0-1.418-0.172-1.948-0.477c-0.624-0.386-0.906-0.754-1.078-1.024
		c-0.219-0.36-0.729-1.406-0.729-3.332C172.271,58.658,172.806,57.19,173.814,56.42z"/>
	<path fill="#FFFFFF" d="M147,60.22c0-0.993,0.236-1.487,0.323-1.833c0.203-0.761,1-2.53,3.32-2.53c1.252,0,1.809,0.727,1.93,0.957
		c0.361,0.658,0.428,1.727,0.428,3.344V68h3.494l0.002-8.579c0.011-2.037,0.024-4.512-2.101-5.918
		c-0.841-0.571-2.03-0.831-3.3-0.831c-1.908,0-3.096,0.633-4.096,1.359V53h-3v15h3V60.22z"/>
	<path fill="#FFFFFF" d="M214.028,67.144L214.014,68H218V48h-4v5.995c-1-0.915-2.41-1.197-2.571-1.229
		c-0.398-0.079-0.862-0.119-1.39-0.119c-0.695,0-2.541,0-4.149,1.485c-1.938,1.778-2.343,4.517-2.343,6.502
		c0,2.558,0.759,4.725,2.13,6.095c1.141,1.183,2.647,1.783,4.478,1.783c0.51,0,1.864-0.059,3.355-0.96
		C213.71,67.43,213.881,67.255,214.028,67.144z M214.021,60.502c0.027,2.289-0.545,3.273-1.049,3.878
		c-0.616,0.752-1.374,1.088-2.459,1.088c-1.514,0-2.535-0.759-3.034-2.252c-0.223-0.683-0.335-1.523-0.335-2.499
		c0-2.885,0.833-3.851,1.466-4.331c0.535-0.417,1.113-0.612,1.821-0.612c0.794,0,1.481,0.217,2.056,0.652
		C213.201,56.941,214.021,57.869,214.021,60.502z"/>
	<path fill="#FFFFFF" d="M195.3,58.188l-2.013,0.436c-0.281,0.054-0.589,0.105-0.911,0.159c-1.204,0.2-2.568,0.427-3.583,0.935
		c-0.833,0.415-1.359,1.003-1.468,1.131c-0.585,0.737-0.882,1.66-0.882,2.749c0.034,2.386,1.26,3.511,1.774,3.875
		c0.867,0.65,2.22,1.039,3.616,1.039c2.08,0,3.456-0.873,4.246-1.56c0.008,0.018,0.016,0.036,0.024,0.054
		c0.365,0.794,1.387,1.232,2.483,1.232L201,68.236V65h-0.932c-0.299,0-0.63,0.168-0.828-0.014c-0.081-0.072-0.081-0.306-0.081-0.524
		c0-0.339-0.073-0.608-0.079-0.922c-0.008-0.301-0.08-0.55-0.08-0.86v-4.2c0-0.997,0.066-2.236-0.375-3.199
		c-0.121-0.361-0.431-0.929-1.041-1.447c-0.997-0.799-2.384-1.187-4.274-1.187c-2.085,0-3.675,0.479-4.747,1.425
		c-1,0.896-1.545,2.157-1.626,3.746l-0.025,0.52l3.092,0.034l0.517-0.051l-0.011-0.517c-0.003-0.141-0.011-0.469,0.066-0.738
		c0.256-0.93,1.116-1.401,2.558-1.401c1.823,0,2.291,0.56,2.51,1.078c0.126,0.251,0.167,0.673,0.168,0.798
		c0,0.207-0.049,0.408-0.084,0.462C195.695,58.041,195.596,58.104,195.3,58.188z M192.305,65.468c-1.031,0-2.236-0.47-2.236-1.794
		c0-0.914,0.599-1.492,1.871-1.777l2.343-0.481c0.429-0.079,0.718-0.166,1.718-0.388v0.184c0,1.056-0.161,2.054-0.765,2.923
		C194.689,64.919,193.421,65.468,192.305,65.468z"/>
	<path fill="#FFFFFF" d="M88.219,68.125c3.378,0,5.147-0.264,6.763-1.175c0.964-0.558,1.776-1.242,2.417-2.095
		c1.276-1.714,1.95-4.153,1.95-7.082c0-3.595-1.078-5.663-1.716-6.573c-0.77-1.138-2.229-2.612-4.797-3.187
		c-0.794-0.198-1.835-0.296-3.094-0.296c-0.237,0-0.206,0.004-0.344,0.007L83,47.728V68h4.264
		C87.596,68,87.915,68.125,88.219,68.125z M86,65V51.021l1.709,0.002c3.11,0.023,4.433,0.032,5.736,1.021
		c0.242,0.193,0.666,0.517,1.078,1.135c0.527,0.766,1.164,2.168,1.164,4.497c0,0.875-0.102,1.864-0.286,2.709
		c-0.348,1.548-0.883,2.606-1.745,3.339C92.393,64.819,90.821,65,88.901,65H86z"/>
	<rect x="161" y="48" fill="#FFFFFF" width="4" height="20"/>
	<path fill="#FFFFFF" d="M113.466,68.004c0.993-0.413,4.232-2.168,4.232-7.397c0-2.854-0.925-5.102-2.677-6.5
		c-1.85-1.461-3.792-1.461-4.621-1.461c-0.725,0-2.65,0-4.431,1.305c-0.66,0.459-1.057,0.926-1.298,1.238
		c-0.729,0.944-1.597,2.655-1.597,5.444c0,5.226,2.81,6.956,4.495,7.525c1.123,0.353,2.223,0.353,2.637,0.353
		C111.135,68.512,112.343,68.455,113.466,68.004z M108.185,56.42c0.386-0.29,1.029-0.674,2.16-0.674
		c2.056,0,3.275,1.141,3.625,3.402c0.106,0.586,0.13,1.362,0.13,1.459c0,2.146-0.513,3.509-1.607,4.285
		c-0.879,0.603-1.793,0.603-2.093,0.603c-0.721,0-1.417-0.172-1.948-0.477c-0.625-0.386-0.908-0.754-1.079-1.024
		c-0.219-0.359-0.729-1.404-0.729-3.332C106.644,58.658,107.178,57.19,108.185,56.42z"/>
</g>
</svg>
