<?xml version="1.0" encoding="utf-8"?>
<!-- Generator: Adobe Illustrator 16.0.0, SVG Export Plug-In . SVG Version: 6.00 Build 0)  -->
<!DOCTYPE svg PUBLIC "-//W3C//DTD SVG 1.1//EN" "http://www.w3.org/Graphics/SVG/1.1/DTD/svg11.dtd">
<svg version="1.1" id="Layer_1" xmlns="http://www.w3.org/2000/svg" xmlns:xlink="http://www.w3.org/1999/xlink" x="0px" y="0px"
	 width="300px" height="150px" viewBox="0 0 300 150" enable-background="new 0 0 300 150" xml:space="preserve">
<g>
	<path fill="#FFFFFF" d="M282.451,69.819c-0.983-0.666-2.322-1.003-3.802-1.003c-2.168,0-3.649,0.668-4.649,1.485V69h-4v18h4v-9.431
		c0-1.146,0.227-1.715,0.325-2.111c0.232-0.871,1.121-2.896,3.778-2.896c1.423,0,2.162,0.823,2.3,1.083
		c0.413,0.754,0.597,1.993,0.597,3.868V87h3.901l0.002-10.169C284.916,74.462,284.933,71.462,282.451,69.819z"/>
	<path fill="#FFFFFF" d="M73.412,78.633c0.035-0.311,0.036-0.561,0.036-0.87c0-0.531-0.026-0.996-0.078-1.489
		c-0.26-2.462-1.163-4.398-2.634-5.719c-0.588-0.528-1.268-0.943-2.033-1.258c-0.87-0.348-1.72-0.472-2.359-0.521
		c-0.384-0.029-0.691-0.026-0.88-0.026c-1.678,0-2.875,0.392-3.46,0.634c-1.36,0.621-2.34,1.697-2.44,1.81
		c-1.592,1.729-2.469,4.188-2.469,6.92c0,1.489,0.303,5.092,3.107,7.38C61.919,86.913,63.776,87,65.564,87h0.042
		c0.985,0,3.981,0.109,6.129-2.42c0.594-0.713,1.245-1.621,1.574-3.365l0.128-0.653l-4.234-0.346l-0.125,0.53
		c-0.158,0.665-0.235,0.958-0.558,1.443c-0.861,1.344-2.37,1.345-2.866,1.345c-0.891,0-1.532-0.104-1.984-0.328
		c-1.43-0.643-2.111-2.529-2.261-3.804C61.398,79.325,61.391,79,61.385,79H73.35L73.412,78.633z M61.538,75.757
		c0.581-2.142,1.91-3.227,3.957-3.227c0.755,0,1.083,0.09,1.335,0.19c1.565,0.53,2.067,2.191,2.181,2.675
		c0.024,0.111,0.043,0.225,0.059,0.334L61.538,75.757z"/>
	<path fill="#FFFFFF" d="M48.987,70.455c-2.154-1.703-4.415-1.703-5.379-1.703c-0.844,0-3.085,0-5.157,1.52
		c-0.756,0.526-1.206,1.046-1.514,1.443c-0.53,0.687-1.123,1.722-1.494,3.194c-0.222,0.883-0.364,1.923-0.364,3.14
		c0,6.079,3.274,8.093,5.237,8.756c1.308,0.413,2.586,0.413,3.068,0.413c1.077,0,2.481-0.067,3.792-0.592
		c1.156-0.481,4.929-2.526,4.929-8.609C52.104,74.696,51.027,72.082,48.987,70.455z M46.006,82.941
		c-1.007,0.69-2.054,0.69-2.398,0.69c-0.826,0-1.625-0.197-2.232-0.547c-0.713-0.438-1.038-0.86-1.234-1.169
		c-0.251-0.413-0.837-1.614-0.837-3.835c0-2.306,0.612-3.994,1.766-4.876c0.441-0.331,1.178-0.771,2.473-0.771
		c2.355,0,3.751,1.308,4.153,3.902c0.122,0.673,0.15,1.568,0.15,1.681C47.847,80.486,47.259,82.053,46.006,82.941z"/>
	<rect x="60" y="63" fill="#FFFFFF" width="4" height="5"/>
	<rect x="67" y="63" fill="#FFFFFF" width="4" height="5"/>
	<path fill="#FFFFFF" d="M25,79.457c0,2.225-0.189,2.858-0.89,3.419c-0.371,0.302-0.939,0.468-1.51,0.468
		c-1.18,0-1.777-0.514-2.067-0.935C20.132,81.8,20,80.639,20,79.137V78.47l-4.217,0.273l-0.019,0.581
		c-0.03,3.464,0.918,5.753,2.913,7c0.643,0.397,1.73,0.926,3.782,0.926c1.749,0,3.162-0.393,4.334-1.207
		c2.039-1.483,2.191-3.556,2.223-5.522C29.049,79.995,29,79.438,29,78.913V63h-4V79.457z"/>
	<rect x="79" y="63" fill="#FFFFFF" width="4" height="24"/>
	<path fill="#FFFFFF" d="M184.693,68.784c-0.686,0-1.315,0.08-1.893,0.238c-1.175,0.255-2.011,0.668-2.608,1.106L180.164,63H176v24
		h4v-9.623c0-0.759,0.084-1.476,0.283-2.129c0.547-1.885,2.338-2.557,3.793-2.557c0.396,0,1.623,0,2.179,1.087
		c0.398,0.819,0.386,2.395,0.369,3.508L186.629,87H191v-9.623c0-2.996-0.089-4.805-1.165-6.251
		C188.757,69.616,186.874,68.784,184.693,68.784z"/>
	<path fill="#FFFFFF" d="M170.179,78.633c0.035-0.311,0.036-0.561,0.036-0.87c0-4.253-1.683-7.241-4.745-8.502
		c-1.393-0.556-2.735-0.532-3.24-0.532c-1.676,0-2.874,0.402-3.46,0.645c-1.357,0.621-2.34,1.702-2.44,1.815
		c-1.592,1.73-2.468,4.19-2.468,6.922c0,1.489,0.303,5.094,3.106,7.383c1.719,1.419,3.575,1.507,5.363,1.507h0.042
		c0.984,0,3.981,0.109,6.129-2.42c0.593-0.711,1.244-1.62,1.574-3.365l0.128-0.653l-4.233-0.346l-0.125,0.53
		c-0.158,0.665-0.235,0.957-0.559,1.443c-0.86,1.344-2.369,1.345-2.865,1.345c-0.891,0-1.532-0.104-1.984-0.328
		c-1.43-0.642-2.11-2.528-2.261-3.803c-0.012-0.078-0.02-0.403-0.024-0.403h11.964L170.179,78.633z M165.837,75.73l-7.532,0.027
		c0.582-2.142,1.91-3.227,3.957-3.227c0.754,0,1.083,0.09,1.336,0.19c1.564,0.53,2.066,2.191,2.181,2.674
		C165.803,75.507,165.821,75.621,165.837,75.73z"/>
	<path fill="#FFFFFF" d="M218.74,69.681c-0.941-0.595-2.033-0.896-3.479-0.896c-1.498,0-2.701,0.347-3.799,1.06
		c-0.602,0.388-0.994,0.759-1.306,1.096c-0.674-0.917-2.206-2.127-4.773-2.156c-1.631,0-2.384,0.449-4.384,1.358V69h-4v18h4.446
		l-0.003-8.736c-0.003-0.334-0.007-0.713,0-1.073c0.021-1.081,0.134-2.229,0.619-3.032c0.492-0.826,1.192-1.22,1.823-1.394
		c0.378-0.104,0.731-0.136,1-0.136c0.275,0,0.755-0.001,1.353,0.422c0.602,0.44,0.762,1.04,0.762,2.95V87h5v-8.942l-0.229-0.896
		c0.01-1.494-0.104-2.053,0.319-2.833c0.389-0.776,1.159-1.702,2.902-1.702c0.792,0,1.095,0.212,1.347,0.372
		c0.591,0.402,0.726,0.886,0.785,2.546c0.032,0.888-0.125,1.777-0.125,2.665V87h4V76.298C222,74.172,221.312,71.261,218.74,69.681z"
		/>
	<path fill="#FFFFFF" d="M241.845,83.525c-0.078-0.069-0.078-0.594-0.078-0.809c0-0.393,0.125-0.822,0.116-1.188
		c-0.008-0.348,0.117-0.753,0.117-1.112v-4.864c0-1.158-0.133-2.599-0.645-3.718c-0.143-0.425-0.611-1.091-1.325-1.697
		c-1.164-0.932-2.832-1.385-5.031-1.385c-2.425,0-4.304,0.559-5.554,1.664c-1.17,1.048-1.818,2.518-1.912,4.371l-0.037,0.649
		l3.625,0.038l0.645-0.06l-0.015-0.646c-0.004-0.16-0.014-0.535,0.073-0.841c0.29-1.054,1.271-1.588,2.918-1.588
		c0.521,0,0.944,0.04,1.291,0.108c1.041,0.206,1.388,0.672,1.574,1.115c0.105,0.211,0.159,0.535,0.18,0.743
		c0.006,0.069,0.01,0.126,0.01,0.161c0,0.225-0.052,0.448-0.087,0.505c-0.028,0.034-0.128,0.105-0.475,0.203
		c-0.039,0.011-0.078,0.022-0.117,0.036l-2.206,0.467c-0.328,0.062-0.687,0.122-1.061,0.185c-1.396,0.232-2.977,0.496-4.157,1.086
		c-0.374,0.187-0.677,0.4-0.938,0.605c-0.415,0.325-0.697,0.624-0.776,0.717c-0.685,0.862-1.032,1.94-1.032,3.213
		c0.035,2.437,1.137,3.746,1.814,4.321c0.097,0.082,0.185,0.148,0.26,0.202c1.013,0.76,2.588,1.213,4.215,1.213
		c2.387,0,3.976-0.983,4.902-1.778c0,0.002,0.001,0.004,0.002,0.006c0.432,0.938,1.18,1.455,2.469,1.455l2.39-0.002V84h-0.227
		C242.437,84,242.063,83.726,241.845,83.525z M237.129,82.076c-0.621,0.897-2.01,1.523-3.289,1.523c-1.173,0-2.572-0.532-2.572-2.03
		c0-1.034,0.667-1.689,2.117-2.014l2.698-0.558c0.485-0.089,0.917-0.188,1.917-0.431v0.143C238,79.929,237.822,81.08,237.129,82.076
		z"/>
	<polygon fill="#FFFFFF" points="139,63 135,63 135,87 151,87 151,83 139,83 	"/>
	<rect x="90" y="63" fill="#FFFFFF" width="4" height="24"/>
	<path fill="#FFFFFF" d="M261.107,69.819c-0.983-0.666-2.15-1.003-3.629-1.003c-2.168,0-3.479,0.669-4.479,1.486V69h-4v18h4v-9.431
		c0-1.148,0.055-1.716,0.155-2.112c0.23-0.871,1.031-2.896,3.689-2.896c1.424,0,1.792,0.823,1.929,1.083
		C259.188,74.4,259,75.642,259,77.521V87h4.558l0.002-10.171C263.572,74.46,263.589,71.462,261.107,69.819z"/>
	<path fill="#FFFFFF" d="M116.132,78.633c0.034-0.311,0.036-0.562,0.036-0.87c0-4.253-1.683-7.241-4.745-8.502
		c-1.392-0.556-2.735-0.532-3.24-0.532c-1.678,0-2.875,0.402-3.459,0.645c-1.363,0.623-2.341,1.703-2.44,1.815
		c-1.592,1.73-2.469,4.191-2.469,6.922c0,1.489,0.303,5.094,3.107,7.382c1.718,1.42,3.575,1.508,5.363,1.508h0.042
		c0.985,0,3.982,0.109,6.129-2.42c0.594-0.713,1.245-1.622,1.574-3.365l0.128-0.653l-4.234-0.346l-0.125,0.53
		c-0.159,0.666-0.236,0.96-0.559,1.443c-0.86,1.344-2.37,1.345-2.866,1.345c-0.891,0-1.532-0.104-1.984-0.328
		c-1.431-0.643-2.111-2.529-2.261-3.804c-0.011-0.077-0.019-0.402-0.024-0.402h11.965L116.132,78.633z M108.215,72.53
		c0.754,0,1.083,0.09,1.335,0.19c1.565,0.53,2.068,2.191,2.182,2.674c0.024,0.112,0.043,0.226,0.059,0.335l-7.533,0.027
		C104.84,73.615,106.168,72.53,108.215,72.53z"/>
</g>
</svg>
